<?xml version="1.0" standalone="no"?>
<!DOCTYPE svg PUBLIC "-//W3C//DTD SVG 20010904//EN"
 "http://www.w3.org/TR/2001/REC-SVG-20010904/DTD/svg10.dtd">
<svg version="1.0" xmlns="http://www.w3.org/2000/svg"
 width="1238.000000pt" height="1238.000000pt" viewBox="0 0 1238.000000 1238.000000"
 preserveAspectRatio="xMidYMid meet">
<metadata>
Created by potrace 1.11, written by Peter Selinger 2001-2013
</metadata>
<g transform="translate(0.000000,1238.000000) scale(0.100000,-0.100000)"
fill="#000000" stroke="none">
<path d="M5888 12365 c-2 -2 -53 -6 -113 -9 -61 -4 -126 -8 -145 -11 -19 -2
-64 -7 -100 -10 -36 -4 -76 -8 -90 -10 -14 -2 -61 -9 -105 -15 -44 -6 -91 -12
-105 -15 -14 -2 -68 -11 -120 -20 -475 -78 -1033 -252 -1495 -465 -164 -75
-459 -229 -566 -295 -9 -5 -32 -18 -50 -29 -70 -39 -408 -267 -514 -346 -138
-104 -303 -239 -444 -365 -66 -58 -380 -372 -431 -430 -20 -22 -56 -62 -80
-89 l-45 -48 75 7 c76 8 252 8 325 1 22 -2 72 -7 110 -11 39 -3 97 -10 130
-14 57 -8 610 -5 685 3 32 4 175 14 305 22 71 4 447 5 465 1 43 -10 61 -21 93
-60 56 -68 143 -209 201 -325 67 -132 75 -152 137 -327 53 -147 161 -437 185
-492 8 -18 20 -48 28 -65 8 -18 31 -73 51 -123 21 -49 48 -112 60 -140 12 -27
37 -84 55 -125 18 -41 38 -88 46 -105 7 -16 74 -169 148 -340 116 -268 361
-828 416 -950 26 -59 137 -314 225 -520 43 -99 83 -193 90 -210 58 -131 205
-485 291 -700 58 -143 109 -269 113 -280 5 -11 30 -74 56 -140 70 -178 188
-458 234 -558 23 -49 41 -89 41 -91 0 -2 23 -45 51 -97 102 -187 154 -187 243
2 46 96 101 214 211 444 136 285 175 368 175 371 0 3 18 41 39 87 22 45 71
152 109 237 39 85 86 191 106 235 20 44 41 89 45 100 19 43 41 94 71 161 68
149 283 651 399 929 35 83 67 159 71 170 5 11 74 173 154 360 79 187 151 354
160 370 9 17 16 33 16 37 0 5 16 42 35 84 19 41 35 77 35 79 0 3 46 107 89
200 34 72 73 158 112 247 21 48 42 95 47 105 19 35 82 173 82 178 0 2 34 75
75 161 41 86 75 158 75 159 0 2 34 74 76 161 42 88 94 197 116 244 184 389
236 456 370 486 35 8 391 5 493 -3 112 -10 611 -9 976 2 241 7 286 5 359 -9
46 -10 93 -22 104 -28 12 -7 4 8 -19 34 -22 24 -78 88 -125 141 -97 110 -376
388 -495 493 -66 58 -178 153 -299 251 -66 53 -263 195 -391 280 -322 215
-661 397 -1025 550 -58 24 -114 48 -125 53 -229 97 -801 267 -1035 306 -14 2
-45 9 -70 14 -49 10 -218 38 -277 46 -20 2 -48 6 -62 9 -14 2 -53 7 -86 11
-33 3 -67 8 -75 9 -8 2 -60 6 -115 10 -55 4 -116 9 -135 12 -44 5 -717 13
-722 8z"/>
<path d="M1345 10036 c-6 -8 -55 -74 -111 -148 -391 -517 -709 -1121 -915
-1740 -42 -126 -115 -371 -124 -418 -2 -8 -10 -42 -19 -75 -24 -96 -61 -270
-72 -339 -3 -22 -7 -43 -9 -46 -1 -3 -6 -25 -9 -50 -3 -25 -8 -56 -11 -70 -6
-30 -32 -233 -40 -310 -4 -30 -8 -68 -10 -85 -26 -201 -26 -920 0 -1130 2 -16
6 -59 10 -95 3 -36 8 -76 9 -90 2 -14 7 -50 10 -80 4 -30 9 -62 11 -70 2 -8 6
-35 9 -60 3 -25 8 -55 10 -66 2 -12 7 -38 10 -58 5 -29 43 -218 71 -350 48
-223 261 -869 324 -983 6 -10 24 -52 42 -93 48 -116 208 -430 294 -580 43 -74
132 -218 199 -319 l121 -184 6 45 c11 73 41 118 96 147 29 15 214 56 313 70
125 17 152 22 244 42 202 45 284 75 351 128 54 44 115 134 148 217 30 79 82
276 91 349 4 28 11 75 16 105 11 67 19 126 34 250 3 25 8 79 11 120 3 41 7 89
9 105 2 17 7 64 10 105 7 79 13 140 21 218 2 26 7 81 10 122 3 41 8 95 10 120
6 63 14 154 20 225 2 33 7 85 10 115 3 30 7 82 10 115 3 33 7 83 9 110 3 28 8
91 11 140 3 50 7 101 10 115 2 14 6 68 10 120 3 52 8 111 10 130 1 19 6 76 9
125 4 50 9 108 11 130 2 22 7 81 10 130 3 50 8 113 10 140 6 70 14 166 20 260
3 44 8 107 10 140 3 33 7 101 10 150 3 50 7 124 10 165 8 118 14 244 20 390 3
74 8 171 10 215 21 446 34 1401 19 1515 -41 337 -210 514 -584 617 -30 8 -66
17 -80 19 -130 25 -421 88 -490 107 -114 32 -220 91 -220 123 0 18 -12 18 -25
0z"/>
<path d="M11028 9977 c-6 -68 -34 -107 -104 -141 -57 -28 -176 -60 -256 -70
-27 -3 -67 -8 -90 -11 -24 -3 -115 -7 -203 -10 -251 -7 -335 -33 -441 -140
-70 -69 -105 -132 -133 -237 -37 -138 -44 -248 -44 -673 0 -496 27 -1490 58
-2170 3 -60 8 -166 10 -235 6 -135 12 -255 20 -420 2 -58 7 -157 10 -220 3
-63 8 -158 10 -210 3 -52 7 -144 10 -205 2 -60 7 -155 10 -210 3 -55 8 -154
11 -220 8 -184 13 -270 18 -385 10 -199 16 -305 21 -415 17 -340 31 -500 60
-670 18 -108 84 -226 165 -292 51 -43 182 -89 460 -162 506 -134 566 -155 594
-210 9 -16 16 -37 16 -46 0 -29 15 -13 80 83 433 651 723 1302 894 2012 35
145 99 471 111 565 3 28 8 68 11 90 3 22 7 51 9 65 3 14 7 59 11 100 3 41 8
86 10 100 19 119 26 732 11 945 -12 176 -17 225 -28 310 -6 44 -12 94 -14 110
-2 17 -6 53 -10 80 -8 62 -75 426 -79 434 -2 3 -7 22 -10 41 -9 58 -102 397
-141 515 -58 176 -117 339 -126 350 -5 5 -9 15 -9 22 0 39 -235 544 -330 709
-28 47 -50 87 -50 90 0 9 -147 245 -233 374 -89 134 -280 395 -296 405 -5 2
-11 -19 -13 -48z"/>
<path d="M3146 8623 c-13 -63 -22 -206 -41 -633 -25 -573 -49 -1726 -60 -2845
-18 -1772 -18 -1827 0 -1900 15 -68 46 -127 89 -170 103 -104 292 -183 506
-210 29 -4 61 -8 70 -10 9 -2 41 -6 71 -10 30 -3 61 -8 69 -10 8 -2 35 -7 60
-10 121 -16 246 -63 287 -107 43 -46 59 -142 31 -187 -20 -33 -80 -57 -150
-61 -161 -10 -573 -1 -763 15 -302 27 -775 23 -1325 -10 -329 -20 -651 -12
-749 20 -19 6 -14 -5 29 -61 55 -73 68 -89 202 -249 174 -209 426 -464 668
-676 304 -266 708 -546 1091 -757 122 -67 482 -242 498 -242 4 0 31 -11 59
-25 29 -14 55 -25 58 -25 3 0 20 -7 37 -15 138 -63 566 -203 777 -254 115 -27
221 -52 245 -57 11 -2 54 -10 95 -19 41 -8 91 -17 110 -20 19 -3 60 -10 90
-15 30 -5 73 -12 95 -14 22 -3 72 -10 110 -15 39 -6 102 -13 140 -17 39 -3 84
-8 100 -10 232 -25 896 -25 1100 0 30 4 112 13 194 21 70 7 146 19 391 60 418
71 989 251 1425 450 109 50 378 186 443 224 29 17 55 31 58 31 2 0 21 11 42
24 20 13 105 66 187 117 237 147 603 418 769 568 22 20 67 60 100 90 108 97
378 372 488 498 103 117 298 357 298 366 0 2 -19 2 -42 -2 -96 -13 -642 -4
-773 14 -16 2 -59 6 -95 10 -121 11 -165 16 -205 20 -194 23 -755 23 -949 0
-17 -2 -65 -6 -106 -10 -41 -3 -93 -8 -115 -11 -214 -25 -672 -37 -799 -21
-160 20 -219 79 -187 188 15 48 31 64 138 129 83 51 90 53 167 56 321 13 505
69 615 189 160 176 189 449 146 1345 -2 47 -7 159 -10 250 -6 180 -11 324 -20
525 -3 72 -7 191 -10 265 -3 74 -8 189 -10 255 -5 118 -9 218 -20 520 -3 83
-8 195 -10 250 -3 55 -7 169 -10 254 -3 84 -8 192 -10 240 -2 47 -7 169 -10
271 -4 102 -8 219 -10 260 -4 79 -13 445 -20 765 -3 105 -6 197 -8 205 -2 8
-7 33 -12 55 -8 43 -39 110 -54 119 -30 19 -138 -160 -231 -379 -38 -89 -238
-542 -303 -685 -13 -30 -62 -138 -107 -240 -45 -102 -92 -207 -105 -235 -12
-27 -32 -72 -44 -100 -13 -27 -33 -72 -46 -100 -13 -27 -126 -275 -250 -549
-125 -274 -242 -533 -262 -575 -19 -42 -52 -114 -73 -161 -21 -47 -51 -112
-66 -145 -15 -33 -28 -62 -29 -65 -3 -11 -25 -59 -70 -160 -58 -129 -252 -576
-330 -760 -31 -74 -63 -148 -70 -165 -7 -16 -23 -55 -35 -85 -12 -30 -26 -63
-31 -73 -5 -9 -23 -52 -40 -95 -16 -42 -36 -90 -44 -107 -31 -70 -146 -359
-185 -465 -80 -223 -133 -347 -236 -555 -137 -278 -213 -392 -264 -396 -125
-10 -181 61 -275 348 -20 59 -40 117 -45 128 -5 11 -16 40 -24 65 -27 82 -152
426 -256 705 -128 344 -441 1152 -485 1250 -7 17 -39 93 -70 170 -65 161 -365
861 -420 980 -20 44 -43 94 -50 110 -8 17 -51 111 -96 210 -44 99 -110 245
-145 325 -36 80 -69 153 -74 162 -6 10 -10 23 -10 28 0 10 -20 60 -50 125 -5
11 -53 123 -106 249 -52 126 -104 248 -114 270 -10 23 -57 131 -105 241 -185
420 -322 687 -383 743 -32 29 -39 28 -46 -5z"/>
</g>
</svg>
